<?xml version="1.0" encoding="UTF-8"?>
<svg width="100" height="100" viewBox="0 0 100 100" xmlns="http://www.w3.org/2000/svg">
  <defs>
    <linearGradient id="glow" x1="0%" y1="0%" x2="100%" y2="100%">
      <stop offset="0%" style="stop-color:#8B5CF6;stop-opacity:1" />
      <stop offset="100%" style="stop-color:#C4B5FD;stop-opacity:1" />
    </linearGradient>
  </defs>
  <g fill="url(#glow)">
    <circle cx="50" cy="50" r="45" fill="none" stroke="url(#glow)" stroke-width="2"/>
    <path d="M50 15 C70 15, 85 30, 85 50 C85 70, 70 85, 50 85 C30 85, 15 70, 15 50 C15 30, 30 15, 50 15" 
          fill="none" stroke="url(#glow)" stroke-width="2"/>
    <circle cx="50" cy="50" r="6"/>
    <circle cx="50" cy="25" r="3"/>
    <circle cx="75" cy="50" r="3"/>
    <circle cx="50" cy="75" r="3"/>
    <circle cx="25" cy="50" r="3"/>
    <path d="M50 35 C60 35, 65 40, 65 50 C65 60, 60 65, 50 65 C40 65, 35 60, 35 50 C35 40, 40 35, 50 35" 
          fill="none" stroke="url(#glow)" stroke-width="2"/>
  </g>
</svg> 